<svg width="18" height="18" viewBox="0 0 18 18" fill="none" xmlns="http://www.w3.org/2000/svg">
<path d="M14.1654 14.0001C13.2404 14.0001 12.4987 14.7417 12.4987 15.6667C12.4987 16.1088 12.6743 16.5327 12.9869 16.8453C13.2994 17.1578 13.7233 17.3334 14.1654 17.3334C14.6074 17.3334 15.0313 17.1578 15.3439 16.8453C15.6564 16.5327 15.832 16.1088 15.832 15.6667C15.832 14.7417 15.082 14.0001 14.1654 14.0001ZM0.832031 0.666748V2.33341H2.4987L5.4987 8.65842L4.36536 10.7001C4.24036 10.9334 4.16536 11.2084 4.16536 11.5001C4.16536 11.9421 4.34096 12.366 4.65352 12.6786C4.96608 12.9912 5.39 13.1667 5.83203 13.1667H15.832V11.5001H6.18203C6.12678 11.5001 6.07379 11.4781 6.03472 11.4391C5.99565 11.4 5.9737 11.347 5.9737 11.2917C5.9737 11.2501 5.98203 11.2167 5.9987 11.1917L6.7487 9.83342H12.957C13.582 9.83342 14.132 9.48342 14.4154 8.97508L17.3987 3.58341C17.457 3.45008 17.4987 3.30841 17.4987 3.16675C17.4987 2.94573 17.4109 2.73377 17.2546 2.57749C17.0983 2.42121 16.8864 2.33341 16.6654 2.33341H4.34036L3.55703 0.666748H0.832031ZM5.83203 14.0001C4.90703 14.0001 4.16536 14.7417 4.16536 15.6667C4.16536 16.1088 4.34096 16.5327 4.65352 16.8453C4.96608 17.1578 5.39 17.3334 5.83203 17.3334C6.27406 17.3334 6.69798 17.1578 7.01054 16.8453C7.3231 16.5327 7.4987 16.1088 7.4987 15.6667C7.4987 14.7417 6.7487 14.0001 5.83203 14.0001Z" fill="white"/>
</svg>
