<svg width="10" height="20" viewBox="0 0 10 20" fill="none" xmlns="http://www.w3.org/2000/svg">
<path d="M8.74992 4.9987V14.582C8.74992 15.4661 8.39873 16.3139 7.77361 16.9391C7.14849 17.5642 6.30064 17.9154 5.41659 17.9154C4.53253 17.9154 3.68468 17.5642 3.05956 16.9391C2.43444 16.3139 2.08325 15.4661 2.08325 14.582V4.16536C2.08325 3.61283 2.30275 3.08293 2.69345 2.69223C3.08415 2.30152 3.61405 2.08203 4.16659 2.08203C4.71912 2.08203 5.24902 2.30152 5.63972 2.69223C6.03043 3.08293 6.24992 3.61283 6.24992 4.16536V12.9154C6.24992 13.1364 6.16212 13.3483 6.00584 13.5046C5.84956 13.6609 5.6376 13.7487 5.41659 13.7487C5.19557 13.7487 4.98361 13.6609 4.82733 13.5046C4.67105 13.3483 4.58325 13.1364 4.58325 12.9154V4.9987H3.33325V12.9154C3.33325 13.4679 3.55275 13.9978 3.94345 14.3885C4.33415 14.7792 4.86405 14.9987 5.41659 14.9987C5.96912 14.9987 6.49902 14.7792 6.88972 14.3885C7.28043 13.9978 7.49992 13.4679 7.49992 12.9154V4.16536C7.49992 3.28131 7.14873 2.43346 6.52361 1.80834C5.89849 1.18322 5.05064 0.832031 4.16659 0.832031C3.28253 0.832031 2.43468 1.18322 1.80956 1.80834C1.18444 2.43346 0.833252 3.28131 0.833252 4.16536V14.582C0.833252 15.7976 1.31614 16.9634 2.17568 17.8229C3.03522 18.6825 4.20101 19.1654 5.41659 19.1654C6.63216 19.1654 7.79795 18.6825 8.65749 17.8229C9.51703 16.9634 9.99992 15.7976 9.99992 14.582V4.9987H8.74992Z" fill="#6C6C6C"/>
</svg>
