<svg width="20" height="20" viewBox="0 0 20 20" fill="none" xmlns="http://www.w3.org/2000/svg">
<path d="M10 0.0400391C4.5 0.0400391 0 4.53004 0 10.06C0 15.06 3.66 19.21 8.44 19.96V12.96H5.9V10.06H8.44V7.85004C8.44 5.34004 9.93 3.96004 12.22 3.96004C13.31 3.96004 14.45 4.15004 14.45 4.15004V6.62004H13.19C11.95 6.62004 11.56 7.39004 11.56 8.18004V10.06H14.34L13.89 12.96H11.56V19.96C13.9164 19.5879 16.0622 18.3856 17.6099 16.5701C19.1576 14.7546 20.0054 12.4457 20 10.06C20 4.53004 15.5 0.0400391 10 0.0400391Z" fill="white"/>
</svg>
