<svg width="22" height="17" viewBox="0 0 22 17" fill="none" xmlns="http://www.w3.org/2000/svg">
<path d="M21.4591 2C20.6891 2.35 19.8591 2.58 18.9991 2.69C19.8791 2.16 20.5591 1.32 20.8791 0.31C20.0491 0.81 19.1291 1.16 18.1591 1.36C17.3691 0.5 16.2591 0 14.9991 0C12.6491 0 10.7291 1.92 10.7291 4.29C10.7291 4.63 10.7691 4.96 10.8391 5.27C7.27906 5.09 4.10906 3.38 1.99906 0.79C1.62906 1.42 1.41906 2.16 1.41906 2.94C1.41906 4.43 2.16906 5.75 3.32906 6.5C2.61906 6.5 1.95906 6.3 1.37906 6C1.37906 6 1.37906 6 1.37906 6.03C1.37906 8.11 2.85906 9.85 4.81906 10.24C4.45906 10.34 4.07906 10.39 3.68906 10.39C3.41906 10.39 3.14906 10.36 2.88906 10.31C3.42906 12 4.99906 13.26 6.88906 13.29C5.42906 14.45 3.57906 15.13 1.55906 15.13C1.21906 15.13 0.879063 15.11 0.539062 15.07C2.43906 16.29 4.69906 17 7.11906 17C14.9991 17 19.3291 10.46 19.3291 4.79C19.3291 4.6 19.3291 4.42 19.3191 4.23C20.1591 3.63 20.8791 2.87 21.4591 2Z" fill="white"/>
</svg>
